<svg width="143" height="178" viewBox="0 0 143 178" fill="none" xmlns="http://www.w3.org/2000/svg">
<path fill-rule="evenodd" clip-rule="evenodd" d="M48.2676 36.0133C72.3974 16.5316 94.6337 34.3928 111.807 50.3173C126.056 63.5301 136.612 83.81 125.936 108.033C115.419 131.895 91.1832 142.448 70.0468 145.064C49.0141 147.666 29.0844 141.88 24.8236 120.545C19.3576 93.1763 23.0921 56.3392 48.2676 36.0133Z" fill="#F0C419" fill-opacity="0.09"/>
<path d="M92.2709 103.371C93.2507 100.6 97.7863 99.6432 97.7863 99.6432C96.8568 97.0463 94.6836 95.5385 92.4537 95.9437L92.2709 103.371Z" fill="#F3D55B"/>
<path d="M91.1208 106.765H89.502C87.3638 106.514 85.3357 108.01 84.4551 110.489C84.4551 110.489 88.7879 111.405 89.902 114.032L91.1208 106.765Z" fill="#F3D55B"/>
<path d="M85.407 61.129V61.0808C85.407 61.0808 86.5583 53.3768 94.9599 53.8503C95.2667 53.8666 95.5487 54.068 95.7184 54.3919C95.888 54.7158 95.9246 55.123 95.8169 55.4868C94.3358 60.4998 90.4697 63.7327 86.245 63.491L85.407 61.129Z" fill="#24AE5F"/>
<path d="M82.9629 62.6076C80.5855 62.917 78.6944 65.2687 78.4083 68.2715C78.4083 68.2715 81.9031 67.6087 83.8457 68.9584H85.4073L82.9629 62.6076Z" fill="#F3D55B"/>
<path d="M85.1025 73.8906C84.7121 72.2035 84.2931 70.5525 83.8551 68.9618H83.8455C83.2728 66.9047 82.6181 64.8857 81.8839 62.9124C81.484 61.8519 81.065 60.8396 80.6269 59.8635C80.2839 59.1242 80.2798 58.2091 80.6162 57.4649C80.9525 56.7206 81.5778 56.2611 82.2553 56.2603H82.2648C82.9384 56.2548 83.563 56.7052 83.9027 57.4413C84.4264 58.6102 84.9311 59.8394 85.4072 61.1168V61.1288C85.6929 61.9001 85.9786 62.6834 86.2452 63.4908C87.0736 65.9974 87.8259 68.6606 88.4925 71.4202L90.0732 78.9158V78.9278C93.4822 97.3896 93.9107 117.358 93.9679 122.528C93.9722 122.85 93.8736 123.161 93.6944 123.39C93.5151 123.619 93.2704 123.747 93.0156 123.745H91.1111C90.5926 123.745 90.1693 123.22 90.1589 122.564C89.9616 109.331 88.8721 96.1438 86.9022 83.1456L85.1025 73.8906Z" fill="#4FBA6F"/>
<path d="M74.9333 93.847H69.2199V101.174H74.9333V93.847Z" fill="#7F8C8D"/>
<path d="M68.1344 82.3628C67.6004 79.7406 67.325 77.0448 67.3146 74.3369C67.3146 65.6845 70.7236 56.2608 74.9325 56.2608V81.3264L68.1344 82.3628Z" fill="#7F8C8D"/>
<path d="M69.2277 93.8249L66.3733 87.5685L61.3636 91.2289L64.218 97.4853L69.2277 93.8249Z" fill="#547580"/>
<path d="M77.6284 89.2916C79.691 88.5704 81.6744 87.5259 83.5324 86.1825C89.4458 81.8563 94.1975 73.4087 92.093 68.7932L74.9326 81.326L77.6284 89.2916Z" fill="#547580"/>
<path d="M70.1723 100.848H73.9813C75.0331 100.848 75.8857 101.927 75.8857 103.258V121.334C75.8857 122.666 75.0331 123.745 73.9813 123.745H70.1723C69.1205 123.745 68.2678 122.666 68.2678 121.334V103.258C68.2678 101.927 69.1205 100.848 70.1723 100.848Z" fill="#F0C419"/>
<path d="M48.2879 107.754L46.3834 103.58C45.8575 102.427 46.1696 100.953 47.0804 100.288L59.4501 91.2498C60.361 90.5842 61.5257 90.9792 62.0516 92.1319L63.9561 96.3063C64.482 97.459 64.1699 98.933 63.2591 99.5985L50.8894 108.637C49.9785 109.302 48.8138 108.907 48.2879 107.754Z" fill="#F0C419"/>
<path d="M66.3622 87.5924C66.3614 90.1739 67.4509 92.5592 69.219 93.8467C70.9847 95.1481 73.1668 95.1481 74.9324 93.8467C76.284 92.857 77.2575 91.2115 77.6273 89.2915C77.735 88.7354 77.7893 88.1649 77.7892 87.5924C77.79 85.0108 76.7005 82.6256 74.9324 81.338V81.326C73.1637 80.038 70.9867 80.0404 69.2198 81.3323C67.4529 82.6243 66.3639 85.0099 66.3622 87.5924Z" fill="#95A5A5"/>
<path d="M72.0766 90.0026C71.0248 90.0026 70.1721 88.9236 70.1721 87.5925C70.1721 86.2614 71.0248 85.1823 72.0766 85.1823C73.1284 85.1823 73.9811 86.2614 73.9811 87.5925C73.9811 88.9236 73.1284 90.0026 72.0766 90.0026Z" fill="#547580"/>
</svg>
