<svg width="142" height="179" viewBox="0 0 142 179" fill="none" xmlns="http://www.w3.org/2000/svg">
<path fill-rule="evenodd" clip-rule="evenodd" d="M94.2488 36.8209C70.1189 17.3392 47.8827 35.2004 30.7093 51.1249C16.4603 64.3377 5.90392 84.6176 16.5805 108.841C27.0976 132.702 51.3331 143.256 72.4696 145.871C93.5023 148.474 113.432 142.687 117.693 121.353C123.159 93.9839 119.424 57.1468 94.2488 36.8209Z" fill="#EEFFF4"/>
<path d="M53.6246 93.822H60.0777C54.0538 85.4387 53.7546 73.715 53.9325 68.8123C53.9631 67.9654 54.3694 67.2439 54.9926 66.9291C55.6259 66.6088 56.3453 66.7965 56.8256 67.4067L62.7876 74.9794C63.112 75.3913 63.1159 76.0644 62.7965 76.4829C62.4772 76.9011 61.9553 76.9062 61.6309 76.4944L55.669 68.9217C55.6589 68.9089 55.6498 68.8973 55.627 68.9003C55.6064 68.9009 55.5884 68.9106 55.579 68.9186C55.4011 73.8382 55.7237 86.0124 62.4213 93.822H66.6154C66.543 93.6268 66.4735 93.4301 66.4044 93.2332C64.7862 91.1263 61.7456 86.8143 59.7317 81.7975C59.5224 81.2761 59.6804 80.6345 60.0847 80.3645C60.4888 80.0945 60.9863 80.298 61.1956 80.8199C62.274 83.5063 63.6914 86.0142 64.9979 88.0499C64.5226 85.6255 64.2769 83.1384 64.2769 80.6515C64.2769 70.9971 67.8726 59.1837 69.4185 54.5527C69.6721 53.7936 70.2567 53.3032 70.9081 53.3032C71.5595 53.3032 72.1441 53.7936 72.3976 54.5526C73.9435 59.1836 77.5393 70.9973 77.5393 80.6513C77.5393 83.1381 77.2935 85.6254 76.8183 88.0498C78.1247 86.0141 79.542 83.5063 80.6205 80.8199C80.8299 80.2983 81.3276 80.0948 81.7315 80.3645C82.1358 80.6345 82.2938 81.2762 82.0845 81.7975C80.0706 86.8143 77.0299 91.1263 75.4117 93.2332C75.3427 93.4301 75.2731 93.6268 75.2008 93.822H79.395C86.0909 86.0144 86.4149 73.8444 86.2372 68.9184C86.2277 68.9105 86.2097 68.9009 86.1893 68.9003C86.1685 68.897 86.1574 68.9091 86.1474 68.9217L80.1767 76.5053C79.8525 76.9171 79.3306 76.9122 79.0111 76.4938C78.6917 76.0754 78.6956 75.4023 79.02 74.9903L84.9908 67.4067C85.4709 66.7967 86.1906 66.609 86.8237 66.9291C87.447 67.2439 87.8532 67.9655 87.8838 68.8121C88.0617 73.715 87.7625 85.4388 81.7386 93.822H88.1916C89.9459 93.822 91.373 95.6628 91.373 97.9254C91.373 100.188 89.9459 102.029 88.1916 102.029H87.5612L83.871 122.44C83.5043 124.469 82.12 125.886 80.5047 125.886H61.3114C59.6962 125.886 58.3118 124.469 57.945 122.44L54.2549 102.029H53.6245C51.8702 102.029 50.443 100.188 50.443 97.9254C50.4431 95.6629 51.8703 93.822 53.6246 93.822ZM70.9081 55.4679C69.3894 60.0286 65.9256 71.443 65.9256 80.6515C65.9256 86.2796 67.2516 90.8404 68.4564 93.8221H70.0838V73.1484C70.0838 72.561 70.4528 72.0851 70.9081 72.0851C71.3634 72.0851 71.7324 72.561 71.7324 73.1484V93.822H73.3598C74.5646 90.8401 75.8907 86.2793 75.8907 80.6513C75.8907 71.4434 72.4269 60.0285 70.9081 55.4679ZM53.6246 99.9028H79.4258C79.8811 99.9028 80.2501 100.379 80.2501 100.966C80.2501 101.553 79.8811 102.029 79.4258 102.029H55.9477L59.5506 121.957C59.7425 123.018 60.4665 123.76 61.3114 123.76H80.5047C81.3497 123.76 82.0736 123.018 82.2655 121.957L85.8684 102.029H83.279C82.8236 102.029 82.4547 101.553 82.4547 100.966C82.4547 100.379 82.8236 99.9028 83.279 99.9028H88.1916C89.0368 99.9028 89.7244 99.0158 89.7244 97.9256C89.7244 96.8354 89.0368 95.9486 88.1916 95.9486H53.6246C52.7794 95.9486 52.0917 96.8354 52.0917 97.9256C52.0917 99.0158 52.7794 99.9028 53.6246 99.9028Z" fill="#0CA941"/>
</svg>
