<svg width="143" height="179" viewBox="0 0 143 179" fill="none" xmlns="http://www.w3.org/2000/svg">
<path fill-rule="evenodd" clip-rule="evenodd" d="M94.8028 36.7462C70.673 17.2646 48.4368 35.1258 31.2634 51.0503C17.0144 64.2631 6.45799 84.543 17.1346 108.766C27.6517 132.628 51.8872 143.181 73.0236 145.797C94.0564 148.399 113.986 142.613 118.247 121.278C123.713 93.9093 119.978 57.0721 94.8028 36.7462Z" fill="#EEFFF4"/>
<g clip-path="url(#clip0_160_39)">
<path d="M44.4909 107.712C45.0116 105.233 46.9917 103.766 48.914 104.437L53.8256 106.376C53.1722 102.589 54.7179 98.7426 57.4939 97.2485C57.0443 95.4848 57.2779 93.5503 58.1215 92.0466C58.9648 90.5429 60.3164 89.652 61.7556 89.6514C61.8455 89.6514 61.9353 89.6514 62.0247 89.6616C62.7268 86.6401 64.7218 84.4167 67.1411 83.9589V82.3076C67.1428 81.3862 66.8588 80.5015 66.3522 79.8514L63.9286 76.7253C62.7457 77.9582 61.2722 78.6326 59.7514 78.6377C57.49 78.5388 55.353 77.2804 53.8138 75.1413C50.9173 71.403 48.1689 57.3598 47.8656 55.7702C47.7907 55.3767 47.8805 54.9612 48.1027 54.6752C48.3245 54.3886 48.6466 54.2727 48.9516 54.3694C50.1841 54.7605 61.0689 58.3055 63.9698 62.0416C67.0881 66.0648 67.5342 71.2769 65.1987 75.0893L67.6223 78.2154C68.068 78.7943 68.4134 79.489 68.6356 80.2527C68.9814 79.7694 69.3784 79.3517 69.815 79.0119L72.8732 76.6501C72.069 74.5432 71.9774 72.1011 72.6199 69.9038C73.3886 67.4628 74.7889 65.4408 76.5827 64.1813C80.1318 61.5402 91.362 61.7499 92.6277 61.7833C92.9419 61.7917 93.2299 62.0111 93.3868 62.3621C93.5441 62.7126 93.5476 63.1445 93.396 63.4995C92.7828 64.9326 87.3115 77.5817 83.7633 80.2239C82.367 81.298 80.7769 81.8825 79.1514 81.9187C78.7456 81.9193 78.3402 81.8763 77.9396 81.7904C76.3048 81.4433 74.8327 80.3098 73.8199 78.6179L70.7358 80.9972C69.8868 81.6603 69.2781 82.7339 69.0458 83.9786C72.0826 84.618 74.3151 87.9979 74.3217 91.9669V92.0477C76.1256 91.7165 77.9523 92.4101 79.3293 93.9488C80.7064 95.4876 81.4992 97.7205 81.5023 100.071H81.7806C83.8163 100.073 85.8473 100.32 87.8471 100.811C89.0909 101.126 90.2843 101.713 91.3756 102.544V98.9133C91.3756 98.2739 91.7775 97.7556 92.2731 97.7556H97.6586C98.1543 97.7556 98.5562 98.2739 98.5562 98.9133V122.068C98.5562 122.707 98.1543 123.226 97.6586 123.226H92.2731C91.7775 123.226 91.3756 122.707 91.3756 122.068V118.363C90.219 119.291 88.9419 119.941 87.6056 120.282C85.8836 120.701 84.1345 120.911 82.3819 120.91H69.5016C67.8489 120.908 66.2036 120.627 64.607 120.075L47.0263 113.385C45.112 112.721 43.9769 110.181 44.4909 107.712ZM62.6988 63.6765C60.8142 61.2451 53.8607 58.4576 49.9886 57.1077C51.0343 62.097 53.1998 71.0734 55.0813 73.5019C57.1061 76.1114 60.1301 77.4579 62.6462 75.0706L59.982 71.6348L58.0225 72.8988C57.5794 73.1865 57.039 72.9564 56.8159 72.3843C56.5928 71.8123 56.7712 71.1152 57.2148 70.8275L58.64 69.9095L56.8089 67.5386L54.8442 68.8122C54.4011 69.0999 53.8607 68.8693 53.6376 68.2978C53.4145 67.7257 53.5929 67.0287 54.0364 66.7409L55.4726 65.8172L53.1792 62.8579C52.946 62.5673 52.8522 62.1366 52.9346 61.7318C53.0166 61.3271 53.2616 61.0111 53.5758 60.9054C53.8896 60.7991 54.2231 60.9201 54.4484 61.2208L56.741 64.1813L57.4527 62.3407C57.6745 61.7686 58.214 61.5368 58.6571 61.8228C59.1006 62.1089 59.2803 62.8048 59.0585 63.3763L58.0755 65.9049L59.911 68.2723L60.6227 66.434C60.8449 65.8625 61.384 65.6307 61.8275 65.9167C62.271 66.2028 62.4503 66.8981 62.2285 67.4702L61.2486 69.9976L63.9124 73.4335C65.7671 70.1898 64.7175 66.287 62.6988 63.6765ZM78.2385 79.506C79.85 79.7779 81.4843 79.3228 82.8657 78.2188C85.1688 76.5042 89.0589 68.5595 91.0758 64.0829C87.0634 64.0953 79.7834 64.473 77.4803 66.1875C74.9453 68.0756 73.1199 71.607 74.4194 75.4573L77.6429 72.9728L77.1722 70.0056C77.0863 69.3871 77.3988 68.793 77.8765 68.6669C78.3537 68.5414 78.8218 68.9298 78.9305 69.5426L79.2754 71.7133L81.5194 69.9863L81.0636 67.1112C80.9772 66.4928 81.2897 65.8987 81.7674 65.7726C82.2447 65.6471 82.7128 66.0355 82.8219 66.6482L83.1519 68.7325L85.9345 66.5832C86.36 66.2554 86.9114 66.434 87.166 66.9829C87.4206 67.5318 87.2817 68.2429 86.8561 68.5714L84.074 70.7167L85.2262 72.035C85.5979 72.4595 85.6329 73.1922 85.3038 73.6715C84.9751 74.1515 84.4071 74.1961 84.035 73.7716L82.4581 71.9683L80.2414 73.6783L81.3388 74.9344C81.7109 75.3584 81.7455 76.0904 81.4168 76.5698C81.0885 77.0498 80.5205 77.095 80.1489 76.671L78.6228 74.9344L75.3744 77.4409C76.1107 78.5433 77.1253 79.2748 78.2385 79.506ZM75.2192 94.2824C74.6662 94.2767 74.1174 94.4096 73.6038 94.6735C73.2913 94.8364 72.9341 94.76 72.6795 94.4751C72.4244 94.1908 72.3148 93.7459 72.3955 93.3236C72.4814 92.8799 72.5252 92.4242 72.5265 91.9669C72.5274 88.9329 70.7103 86.414 68.3643 86.1963C66.0182 85.9792 63.9409 88.137 63.6056 91.1404C63.5701 91.4745 63.4228 91.7724 63.2032 91.9556C62.9832 92.1387 62.7119 92.1891 62.4613 92.093C62.232 92.0076 61.9941 91.9652 61.7556 91.9669C60.2686 91.9669 59.0629 93.522 59.0629 95.4401C59.062 96.1038 59.2115 96.7539 59.4929 97.3095C59.6528 97.6272 59.6822 98.0252 59.5722 98.3757C59.4622 98.7262 59.226 98.9851 58.9398 99.0693C56.915 99.6895 55.4818 102.017 55.4726 104.702C55.4691 105.567 55.6186 106.423 55.9096 107.203L60.3194 108.945C60.5395 107.136 61.5698 105.667 62.9434 105.205L66.8891 103.845L74.5373 100.951C75.0755 100.748 75.626 100.593 76.1777 100.46C76.14 100.336 76.1194 100.204 76.1168 100.071C76.1168 99.4317 75.7149 98.9133 75.2192 98.9133C75.1276 98.9088 75.0365 98.9269 74.9501 98.9664C74.4913 99.201 73.9719 98.9144 73.787 98.3243C73.602 97.7346 73.8207 97.0625 74.277 96.82C74.5767 96.6679 74.8967 96.5922 75.2192 96.5978C76.7063 96.5978 77.912 98.153 77.912 100.071C77.912 100.101 77.9001 100.126 77.8984 100.156C78.3743 100.104 78.8516 100.071 79.3302 100.071H79.7071C79.704 96.8754 77.6968 94.2863 75.2192 94.2824ZM93.1707 120.91H96.761V100.071H93.1707V120.91ZM47.5137 111.151L65.0917 117.847C66.5306 118.341 68.0128 118.593 69.5016 118.595H82.3819C84.021 118.594 85.6566 118.395 87.2672 118.001C88.4212 117.707 89.5226 117.139 90.5157 116.327L91.3756 115.632V105.293L91.2778 105.203C90.1541 104.154 88.8682 103.431 87.5078 103.081C85.6198 102.619 83.7024 102.387 81.7806 102.387H79.3302C77.8787 102.386 76.4346 102.651 75.0404 103.173L67.3725 106.075L63.4079 107.441C62.4564 107.761 61.8858 109.015 62.1326 110.243V110.259L62.1378 110.273V110.283C62.3521 111.293 63.0626 111.994 63.8738 111.995C64.0289 111.997 64.1837 111.971 64.3335 111.919L74.9957 108.237C75.3087 108.118 75.6474 108.226 75.8806 108.521C76.1133 108.816 76.2036 109.251 76.1164 109.657C76.0292 110.063 75.778 110.375 75.4607 110.473L64.7968 114.156C64.4957 114.26 64.1854 114.312 63.8738 114.311C62.4288 114.304 61.1272 113.183 60.5693 111.463L48.4231 106.67C47.4628 106.345 46.4794 107.082 46.223 108.32C46.1831 108.515 46.1634 108.717 46.1647 108.92C46.1704 109.972 46.7239 110.888 47.5137 111.151Z" fill="#0CA941"/>
<path d="M69.7852 93.6549C69.5095 93.6549 69.2492 93.4909 69.0787 93.2111C68.9086 92.9313 68.8477 92.5655 68.9139 92.2201C68.9292 92.137 68.9367 92.0522 68.9363 91.9669C68.9363 91.3275 68.5344 90.8091 68.0387 90.8091C67.6017 90.8046 67.2283 91.2145 67.1617 91.7713C67.1319 92.0771 67.0079 92.3541 66.8172 92.5401C66.627 92.7266 66.3864 92.8058 66.1502 92.76C65.6602 92.6718 65.3175 92.089 65.3845 91.4564C65.587 89.6548 66.8352 88.3625 68.2425 88.4965C69.6498 88.631 70.7367 90.1466 70.7314 91.9669C70.7327 92.2399 70.7073 92.5124 70.656 92.7769C70.5561 93.2925 70.1971 93.6549 69.7852 93.6549Z" fill="#0CA941"/>
<path d="M60.4163 102.197C60.4702 102.497 60.429 102.812 60.3024 103.072C60.1757 103.333 59.9741 103.518 59.7414 103.587C59.3447 103.715 59.0656 104.174 59.0629 104.702C59.0629 105.341 58.6611 105.859 58.1654 105.859C57.6697 105.859 57.2678 105.341 57.2678 104.702C57.2722 103.094 58.1294 101.699 59.3421 101.327C59.8251 101.185 60.3059 101.574 60.4163 102.197Z" fill="#0CA941"/>
<path d="M66.4123 97.2747C67.6981 96.8259 69.0445 97.6648 69.5717 99.2431C69.7641 99.8321 69.5498 100.512 69.0927 100.76C68.636 101.009 68.1092 100.732 67.9164 100.142C67.7424 99.6247 67.298 99.3528 66.8773 99.5065C66.6467 99.5862 66.4504 99.7813 66.3316 100.048C66.2128 100.315 66.1808 100.631 66.2435 100.928C66.3719 101.546 66.0879 102.181 65.6089 102.347C65.5327 102.373 65.4542 102.386 65.3758 102.386C64.9695 102.386 64.6145 102.034 64.5093 101.528C64.1271 99.6761 64.9778 97.7744 66.4123 97.2747Z" fill="#0CA941"/>
<path d="M62.6532 95.4398C62.1575 95.4398 61.7556 95.9582 61.7556 96.5976C61.7556 97.2369 61.3537 97.7553 60.8581 97.7553C60.3624 97.7553 59.9605 97.2369 59.9605 96.5976C59.9605 94.6795 61.1662 93.1243 62.6532 93.1243C63.1489 93.1243 63.5508 93.6427 63.5508 94.2821C63.5508 94.9214 63.1489 95.4398 62.6532 95.4398Z" fill="#0CA941"/>
</g>
<defs>
<clipPath id="clip0_160_39">
<rect width="54.1881" height="69.8945" fill="white" transform="matrix(-1 0 0 1 98.5562 53.7604)"/>
</clipPath>
</defs>
</svg>
